<svg width="400" height="250" viewBox="0 0 400 250" xmlns="http://www.w3.org/2000/svg">
  <defs>
    <linearGradient id="bg" x1="0%" y1="0%" x2="100%" y2="100%">
      <stop offset="0%" style="stop-color:#2a2a2a;stop-opacity:1" />
      <stop offset="100%" style="stop-color:#1a1a1a;stop-opacity:1" />
    </linearGradient>
  </defs>
  
  <!-- Background -->
  <rect width="400" height="250" fill="url(#bg)"/>
  
  <!-- Blog icon -->
  <g transform="translate(150, 75)">
    <!-- Document -->
    <rect x="0" y="0" width="100" height="120" rx="8" fill="#4a9eff" opacity="0.8"/>
    <rect x="8" y="8" width="84" height="104" rx="4" fill="#1a1a1a"/>
    
    <!-- Text lines -->
    <rect x="20" y="25" width="60" height="4" rx="2" fill="#4a9eff"/>
    <rect x="20" y="35" width="50" height="4" rx="2" fill="#4a9eff" opacity="0.7"/>
    <rect x="20" y="45" width="55" height="4" rx="2" fill="#4a9eff" opacity="0.7"/>
    <rect x="20" y="55" width="45" height="4" rx="2" fill="#4a9eff" opacity="0.5"/>
    <rect x="20" y="65" width="60" height="4" rx="2" fill="#4a9eff" opacity="0.5"/>
    <rect x="20" y="75" width="40" height="4" rx="2" fill="#4a9eff" opacity="0.3"/>
  </g>
  
  <!-- Decorative elements -->
  <circle cx="80" cy="50" r="3" fill="#4a9eff" opacity="0.3"/>
  <circle cx="320" cy="80" r="2" fill="#4a9eff" opacity="0.4"/>
  <circle cx="70" cy="180" r="2" fill="#4a9eff" opacity="0.3"/>
  <circle cx="330" cy="200" r="3" fill="#4a9eff" opacity="0.2"/>
</svg>
